<svg width="48" height="48" viewBox="0 0 48 48" fill="none" xmlns="http://www.w3.org/2000/svg">
<path d="M34.8053 33.4748L33.3166 16.7104C33.2847 16.3382 32.971 16.0564 32.6041 16.0564H29.5415C29.499 13.2597 27.2127 11 24.4053 11C21.598 11 19.3117 13.2597 19.2691 16.0564H16.2065C15.8344 16.0564 15.526 16.3382 15.4941 16.7104L14.0053 33.4748C14.0053 33.4961 14 33.5174 14 33.5387C14 35.4474 15.7493 37 17.9027 37H30.908C33.0613 37 34.8106 35.4474 34.8106 33.5387C34.8106 33.5174 34.8106 33.4961 34.8053 33.4748ZM24.4053 12.4356C26.4204 12.4356 28.0634 14.0519 28.1059 16.0564H20.7047C20.7472 14.0519 22.3902 12.4356 24.4053 12.4356ZM30.908 35.5644H17.9027C16.5521 35.5644 15.4569 34.6712 15.4356 33.5706L16.8605 17.4973H19.2638V19.6773C19.2638 20.0761 19.5828 20.3951 19.9816 20.3951C20.3804 20.3951 20.6994 20.0761 20.6994 19.6773V17.4973H28.1059V19.6773C28.1059 20.0761 28.4249 20.3951 28.8237 20.3951C29.2225 20.3951 29.5415 20.0761 29.5415 19.6773V17.4973H31.9448L33.3751 33.5706C33.3538 34.6712 32.2532 35.5644 30.908 35.5644Z" fill="white"/>
</svg>
