<svg width="48" height="48" viewBox="0 0 48 48" fill="none" xmlns="http://www.w3.org/2000/svg">
<path fill-rule="evenodd" clip-rule="evenodd" d="M29.9175 15.0675H17.9966C18.0992 14.4786 18.2958 13.7241 18.6674 12.981C19.0498 12.2162 19.6077 11.4818 20.4259 10.9363C21.2377 10.3951 22.3652 10 23.9571 10C25.5489 10 26.6764 10.3951 27.4882 10.9363C28.3064 11.4818 28.8643 12.2162 29.2467 12.981C29.6183 13.7241 29.8149 14.4786 29.9175 15.0675ZM31.9005 14.7988C31.9161 14.8924 31.9297 14.9821 31.9416 15.0675H36.9141C37.4664 15.0675 37.9141 15.5152 37.9141 16.0675V39.6258C37.9141 40.1781 37.4664 40.6258 36.9141 40.6258H11C10.4477 40.6258 10 40.1781 10 39.6258V16.0675C10 15.5152 10.4477 15.0675 11 15.0675H15.9725C15.9844 14.9821 15.998 14.8924 16.0136 14.7988C16.135 14.0707 16.3795 13.0847 16.8786 12.0865C17.3796 11.0845 18.1469 10.052 19.3165 9.27224C20.4923 8.48834 22.0152 8 23.9571 8C25.8989 8 27.4218 8.48834 28.5976 9.27224C29.7672 10.052 30.5345 11.0845 31.0355 12.0865C31.5346 13.0847 31.7792 14.0707 31.9005 14.7988ZM35.9141 17.0675H31.0245H12V38.6258H35.9141V17.0675ZM24.9571 23.135C24.9571 22.5827 24.5093 22.135 23.9571 22.135C23.4048 22.135 22.9571 22.5827 22.9571 23.135V26.8466H19.2454C18.6931 26.8466 18.2454 27.2943 18.2454 27.8466C18.2454 28.3989 18.6931 28.8466 19.2454 28.8466H22.9571V32.5583C22.9571 33.1106 23.4048 33.5583 23.9571 33.5583C24.5093 33.5583 24.9571 33.1106 24.9571 32.5583V28.8466H28.6687C29.221 28.8466 29.6687 28.3989 29.6687 27.8466C29.6687 27.2943 29.221 26.8466 28.6687 26.8466H24.9571V23.135Z" fill="#121212"/>
</svg>
