<svg width="20" height="15" viewBox="0 0 20 15" fill="none" xmlns="http://www.w3.org/2000/svg">
<path d="M16.1931 10.9815C16.1138 10.9815 16.0345 10.9525 15.9726 10.8938L12.2617 7.41257C12.1321 7.29133 12.1257 7.08689 12.2475 6.95727C12.3694 6.82635 12.5726 6.82054 12.7035 6.94308L16.4143 10.4243C16.5439 10.5456 16.5504 10.75 16.4285 10.8796C16.3647 10.9473 16.2795 10.9815 16.1931 10.9815Z" fill="black"/>
<path d="M3.80617 10.982C3.7204 10.982 3.63463 10.9478 3.57078 10.8801C3.44889 10.7505 3.45534 10.546 3.58497 10.4248L7.29708 6.94356C7.42735 6.82232 7.63179 6.82748 7.75303 6.95775C7.87492 7.08738 7.86847 7.29182 7.73885 7.41306L4.02673 10.8943C3.96482 10.953 3.8855 10.982 3.80617 10.982Z" fill="black"/>
<path d="M18.3877 14.2184H1.61228C0.723591 14.2184 0 13.4954 0 12.6061V1.61228C0 0.722946 0.723591 0 1.61228 0H18.3877C19.2764 0 20 0.722946 20 1.61228V12.6061C20 13.4954 19.2764 14.2184 18.3877 14.2184ZM1.61228 0.644912C1.07894 0.644912 0.644912 1.07894 0.644912 1.61228V12.6061C0.644912 13.1394 1.07894 13.5735 1.61228 13.5735H18.3877C18.9211 13.5735 19.3551 13.1394 19.3551 12.6061V1.61228C19.3551 1.07894 18.9211 0.644912 18.3877 0.644912H1.61228Z" fill="black"/>
<path d="M10.0002 8.72958C9.57132 8.72958 9.14245 8.58706 8.81613 8.30265L0.535464 1.079C0.401322 0.962266 0.387134 0.758474 0.503863 0.623687C0.621882 0.489546 0.825029 0.477293 0.959171 0.592732L9.23984 7.81574C9.65193 8.17496 10.3484 8.17496 10.7599 7.81574L19.0302 0.60434C19.1637 0.487611 19.3669 0.500509 19.4855 0.635296C19.6023 0.770083 19.5887 0.97323 19.4546 1.0906L11.1842 8.30201C10.8573 8.58706 10.4291 8.72958 10.0002 8.72958Z" fill="black"/>
</svg>
