<svg width="48" height="48" viewBox="0 0 48 48" fill="none" xmlns="http://www.w3.org/2000/svg">
<path d="M15.5156 36H23.3438V27.4688H20.5312V24.6562H23.3438V21.1406C23.3438 19.2021 24.9208 17.625 26.8594 17.625H30.375V20.4375H27.5625C26.787 20.4375 26.1562 21.0683 26.1562 21.8438V24.6562H30.2481L29.7794 27.4688H26.1562V36H32.4844C34.4229 36 36 34.4229 36 32.4844V15.5156C36 13.5771 34.4229 12 32.4844 12H15.5156C13.5771 12 12 13.5771 12 15.5156V32.4844C12 34.4229 13.5771 36 15.5156 36ZM13.4062 15.5156C13.4062 14.3525 14.3525 13.4062 15.5156 13.4062H32.4844C33.6475 13.4062 34.5938 14.3525 34.5938 15.5156V32.4844C34.5938 33.6475 33.6475 34.5938 32.4844 34.5938H27.5625V28.875H30.9706L31.9081 23.25H27.5625V21.8438H31.7812V16.2188H26.8594C24.1454 16.2188 21.9375 18.4266 21.9375 21.1406V23.25H19.125V28.875H21.9375V34.5938H15.5156C14.3525 34.5938 13.4062 33.6475 13.4062 32.4844V15.5156Z" fill="white"/>
</svg>
