<svg width="48" height="48" viewBox="0 0 48 48" fill="none" xmlns="http://www.w3.org/2000/svg">
<path d="M15.5156 36H32.4844C34.4229 36 36 34.4229 36 32.4844V15.5156C36 13.5771 34.4229 12 32.4844 12H15.5156C13.5771 12 12 13.5771 12 15.5156V32.4844C12 34.4229 13.5771 36 15.5156 36ZM13.4062 15.5156C13.4062 14.3525 14.3525 13.4062 15.5156 13.4062H32.4844C33.6475 13.4062 34.5938 14.3525 34.5938 15.5156V32.4844C34.5938 33.6475 33.6475 34.5938 32.4844 34.5938H15.5156C14.3525 34.5938 13.4062 33.6475 13.4062 32.4844V15.5156Z" fill="white"/>
<path d="M24 30.3281C27.4893 30.3281 30.3281 27.4893 30.3281 24C30.3281 20.5107 27.4893 17.6719 24 17.6719C20.5107 17.6719 17.6719 20.5107 17.6719 24C17.6719 27.4893 20.5107 30.3281 24 30.3281ZM24 19.0781C26.714 19.0781 28.9219 21.286 28.9219 24C28.9219 26.714 26.714 28.9219 24 28.9219C21.286 28.9219 19.0781 26.714 19.0781 24C19.0781 21.286 21.286 19.0781 24 19.0781Z" fill="white"/>
<path d="M31.0312 19.0781C32.1943 19.0781 33.1406 18.1318 33.1406 16.9688C33.1406 15.8057 32.1943 14.8594 31.0312 14.8594C29.8682 14.8594 28.9219 15.8057 28.9219 16.9688C28.9219 18.1318 29.8682 19.0781 31.0312 19.0781ZM31.0312 16.2656C31.4189 16.2656 31.7344 16.5811 31.7344 16.9688C31.7344 17.3564 31.4189 17.6719 31.0312 17.6719C30.6436 17.6719 30.3281 17.3564 30.3281 16.9688C30.3281 16.5811 30.6436 16.2656 31.0312 16.2656Z" fill="white"/>
</svg>
